<?xml version="1.0" encoding="UTF-8" standalone="no"?>
<svg
   xmlns:dc="http://purl.org/dc/elements/1.1/"
   xmlns:cc="http://creativecommons.org/ns#"
   xmlns:rdf="http://www.w3.org/1999/02/22-rdf-syntax-ns#"
   xmlns:svg="http://www.w3.org/2000/svg"
   xmlns="http://www.w3.org/2000/svg"
   xmlns:sodipodi="http://sodipodi.sourceforge.net/DTD/sodipodi-0.dtd"
   xmlns:inkscape="http://www.inkscape.org/namespaces/inkscape"
   width="1024"
   height="1024"
   viewBox="0 0 270.93333 270.93334"
   version="1.1"
   id="svg8"
   inkscape:version="1.0.1 (3bc2e813f5, 2020-09-07)"
   sodipodi:docname="mapa_002.svg">
  <defs
     id="defs2" />
  <sodipodi:namedview
     id="base"
     pagecolor="#ffffff"
     bordercolor="#666666"
     borderopacity="1.0"
     inkscape:pageopacity="0.0"
     inkscape:pageshadow="2"
     inkscape:zoom="0.49497475"
     inkscape:cx="160.51928"
     inkscape:cy="627.17341"
     inkscape:document-units="px"
     inkscape:current-layer="layer1"
     inkscape:document-rotation="0"
     showgrid="false"
     units="px"
     inkscape:showpageshadow="false"
     inkscape:snap-page="false"
     inkscape:window-width="1920"
     inkscape:window-height="1056"
     inkscape:window-x="0"
     inkscape:window-y="0"
     inkscape:window-maximized="1" />
  <metadata
     id="metadata5">
    <rdf:RDF>
      <cc:Work
         rdf:about="">
        <dc:format>image/svg+xml</dc:format>
        <dc:type
           rdf:resource="http://purl.org/dc/dcmitype/StillImage" />
        <dc:title></dc:title>
      </cc:Work>
    </rdf:RDF>
  </metadata>
  <g
     inkscape:label="Layer 1"
     inkscape:groupmode="layer"
     id="layer1">
    <rect
       style="fill:#000000;stroke:#000000;stroke-width:0;stroke-linejoin:miter;stroke-miterlimit:0;stroke-dasharray:none;paint-order:stroke fill markers"
       id="rect883"
       width="270.93332"
       height="270.93329"
       x="0"
       y="0"
       inkscape:export-xdpi="96"
       inkscape:export-ydpi="96"
       inkscape:export-filename="/home/mpulcinelli/HM-Mapa_002.png" />
    <g
       id="g935"
       transform="translate(49.452777,89.165562)"
       inkscape:export-filename="/home/mpulcinelli/HM-Mapa_002.png"
       inkscape:export-xdpi="96"
       inkscape:export-ydpi="96">
      <path
         style="fill:#ffffff;stroke:#ffffff;stroke-width:0.962722"
         d="m -43.348127,138.38673 c 0.863083,-1.45611 14.668224,-23.00911 30.678126,-47.895589 l 29.108891,-45.248 h 9.489789 c 6.736066,0 9.606152,0.349309 9.890874,1.203409 0.301644,0.904637 -1.82969,1.207699 -8.584275,1.22069 l -8.9854,0.0182 -3.128866,4.785137 c -1.720857,2.631827 -3.128829,4.996288 -3.128829,5.254377 0,0.257979 7.220842,0.58804 16.046324,0.733222 11.788534,0.193939 16.152536,0.583274 16.446536,1.467389 0.310378,0.933494 -3.558551,1.203408 -17.251476,1.203408 H 9.5819129 L -1.9690187,79.076627 c -6.3530274,9.871191 -11.6953853,18.319054 -11.8718953,18.773047 -0.176475,0.453994 2.726794,0.825462 6.4517433,0.825462 h 6.77267068 l 4.38197572,-6.773907 4.3820128,-6.773873 9.3054175,0.275446 c 6.383665,0.189208 9.430661,0.653354 9.704359,1.478923 0.299824,0.904348 -1.834019,1.208393 -8.586495,1.22342 l -8.9854009,0.02183 -3.9647334,6.037267 -3.9647334,6.037268 4.2054295,6.48176 c 4.4203642,6.8131 4.9783132,8.36528 3.0019862,8.35174 -0.6618684,-0.004 -3.0719574,-3.03715 -5.3557853,-6.73913 l -4.15237893,-6.73082 H -8.5282113 -16.411613 l -11.550932,17.94776 c -6.353026,9.87123 -11.695384,18.31909 -11.871894,18.77308 -0.176475,0.454 21.5931,0.82547 48.3768656,0.82547 26.7837644,0 48.6977184,-0.2871 48.6977184,-0.63779 0,-0.35076 -1.34484,-2.73348 -2.988522,-5.29498 L 51.2631,128.52139 H 16.224065 c -19.2714675,0 -35.038962,-0.32493 -35.038891,-0.72205 7.3e-5,-0.39712 2.190971,-4.14139 4.868682,-8.32062 3.561244,-5.55823 5.1548962,-7.31228 5.9349479,-6.53223 0.7800499,0.78006 0.1189785,2.49332 -2.4618669,6.38043 -1.940559,2.92266 -3.52828,5.53724 -3.52828,5.81014 0,0.2729 15.054578,0.49988 33.454627,0.50439 l 33.454626,0.008 4.152377,6.73083 4.152379,6.73083 h 75.994314 c 41.79689,-4e-4 75.99431,-0.28746 75.99431,-0.63819 0,-0.35076 -1.34484,-2.73348 -2.98853,-5.29498 l -2.98851,-4.6572 -17.46936,-0.0219 -17.46933,-0.0219 -8.52234,-13.45586 -8.52238,-13.45587 -7.84392,0.0182 -7.84393,0.0218 -3.94792,6.01201 -3.94792,6.01197 3.79502,6.00208 3.79499,6.00208 h 6.65129 c 3.65822,0 6.65129,-0.33075 6.65129,-0.73489 0,-0.40421 -1.53511,-3.01443 -3.41137,-5.80053 -3.0363,-4.50868 -3.75232,-7.91384 -1.3522,-6.43047 1.2196,0.75375 9.57719,13.77494 9.57719,14.92134 0,0.54168 -4.13717,0.92927 -9.86792,0.92447 l -9.86791,-0.007 -4.15238,-6.73083 -4.15237,-6.73085 h -9.16529 c -6.90313,0 -9.06687,-0.29692 -8.7665,-1.20342 0.27108,-0.81793 3.22623,-1.29205 9.22569,-1.4802 l 8.82694,-0.27691 3.76489,-5.92152 3.76494,-5.92151 -3.12311,-4.873047 C 97.280089,38.306513 88.568352,24.82379 87.583227,23.7624 86.637326,22.743252 81.670948,29.863017 62.196481,60.156575 48.880556,80.870216 37.985708,98.006677 37.985708,98.237585 c 0,0.231053 18.917573,0.532733 42.039084,0.670674 32.595218,0.194303 42.129178,0.521124 42.440028,1.454221 0.30128,0.9045 -1.83089,1.20836 -8.58446,1.22342 l -8.9854,0.0218 -3.95265,6.01911 -3.952621,6.0191 3.661271,5.7543 3.66131,5.75429 8.87918,0.48135 c 5.88612,0.31911 9.0132,0.88703 9.27676,1.68476 0.31183,0.94397 -5.55181,1.20341 -27.20047,1.20341 -21.650082,0 -27.511819,-0.25944 -27.197913,-1.20341 0.294001,-0.88408 4.658002,-1.27345 16.446536,-1.46735 8.825483,-0.14518 16.046317,-0.54049 16.046317,-0.87844 0,-0.33803 -1.344833,-2.71024 -2.988516,-5.2717 l -2.988523,-4.65727 h -17.79025 c -13.80354,0 -17.700668,-0.26963 -17.390546,-1.20341 0.292183,-0.8802 5.129716,-1.3327 18.010025,-1.68478 l 17.610318,-0.48135 3.241518,-5.05432 3.241484,-5.05431 -24.300142,0.0109 -24.300138,0.0109 -4.332271,6.71852 -4.332236,6.71853 -9.948148,0.0109 c -7.532273,0.007 -9.851577,-0.28199 -9.550553,-1.19311 0.264165,-0.79913 3.404747,-1.36516 9.348245,-1.68481 l 8.95065,-0.48132 3.238753,-5.05431 3.238789,-5.05432 h -16.91927 c -13.106268,0 -16.829394,-0.27108 -16.520475,-1.20341 0.271079,-0.817929 3.226236,-1.29208 9.225696,-1.480197 l 8.826937,-0.276792 3.762134,-5.917119 3.762171,-5.917154 -3.710393,-5.840087 -3.710356,-5.840089 -9.265612,-0.276537 c -6.736103,-0.200851 -9.159872,-0.595134 -8.878387,-1.444065 0.260891,-0.78671 3.502881,-1.250783 9.936249,-1.422271 l 9.549061,-0.254705 3.876423,6.290114 3.876461,6.290152 18.7133,-29.140948 C 95.369258,3.242929 94.847988,4.0107537 95.982988,5.1457541 96.744227,5.9069575 95.830529,8.0097973 92.679613,12.748325 l -4.355669,6.550281 12.498876,19.474036 12.49886,19.474067 8.78342,0.02183 8.78339,0.02183 8.6645,13.635362 c 9.18188,14.44958 10.03969,16.177641 8.01304,16.142128 -0.70069,-0.01086 -5.10904,-6.077399 -9.79637,-13.478099 l -8.52235,-13.455877 h -6.64051 c -3.65229,0 -6.64052,0.270715 -6.64052,0.601358 0,0.330752 5.25598,8.778617 11.68,18.773083 l 11.68002,18.171732 h 8.00916 8.00919 l 4.4427,-6.867785 c 3.23523,-5.001091 4.73103,-6.579496 5.50337,-5.807159 0.77234,0.772375 -0.12299,2.84054 -3.29388,7.609195 l -4.35454,6.548603 8.15733,12.73676 8.15727,12.73672 h 15.28996 c 8.40947,0 15.28992,-0.27799 15.28992,-0.61809 0,-0.76313 -20.03907,-32.117712 -21.62847,-33.841444 -0.91736,-0.994914 -1.83412,-0.212496 -4.5571,3.888431 l -3.40871,5.133863 4.20717,6.48453 c 4.41982,6.81219 4.98312,8.37645 3.00381,8.34148 -0.66186,-0.0109 -3.27507,-3.31471 -5.80708,-7.34005 l -4.60373,-7.31877 4.26621,-6.817093 4.26619,-6.817098 -3.11279,-4.856709 C 175.45027,79.204302 166.55624,65.321695 157.39779,51.025266 148.23937,36.728835 140.21817,24.4628 139.5729,23.767457 c -0.94729,-1.020894 -1.89624,-0.141907 -4.9288,4.564492 -2.06558,3.20586 -4.29715,5.832592 -4.95903,5.83725 -1.85683,0.01456 -1.50272,-0.92818 3.07022,-8.159794 2.33859,-3.698242 3.92303,-7.164047 3.521,-7.701766 C 135.87425,17.76992 128.26554,5.9577695 119.36805,-7.9415312 L 103.19076,-33.213003 h -9.096043 c -6.847373,0 -8.99759,-0.297641 -8.697876,-1.203402 0.261618,-0.790649 2.960542,-1.300387 7.868883,-1.486137 5.416515,-0.204849 7.346126,-0.607404 7.017626,-1.463433 -1.384066,-3.606834 -13.493746,-20.958518 -14.140442,-20.261531 -0.422447,0.455266 -3.996207,5.829235 -7.941729,11.942147 l -7.173649,11.114376 8.142145,12.713007 8.142146,12.7130394 h 6.625451 c 3.643988,0 6.625408,-0.3307527 6.625408,-0.7348957 0,-0.4041807 -1.558022,-3.0484157 -3.462267,-5.8761107 -2.107463,-3.129411 -3.11573,-5.487795 -2.576629,-6.026895 1.241868,-1.241868 2.146833,-0.0182 16.037186,21.66390324 6.74171,10.52402876 12.02582,19.73870376 11.74251,20.47702076 -0.28345,0.738354 -2.19941,3.824867 -4.25794,6.858947 l -3.7428,5.516504 3.80772,6.017 3.80769,6.017034 8.81744,0.02183 8.8174,0.02182 8.66451,13.63536 c 9.18188,14.449544 10.0397,16.177606 8.01305,16.142131 -0.70069,-0.01087 -5.10906,-6.077437 -9.79638,-13.478137 l -8.52235,-13.455868 -8.80667,-0.02183 -8.80663,-0.02183 -4.60372,-7.318722 -4.60367,-7.318722 4.2492,-6.789955 4.24924,-6.789995 -2.8512,-4.63381 c -1.56818,-2.548576 -3.20397,-4.8518354 -3.63515,-5.1182931 -0.43115,-0.2663491 -2.45437,2.1083011 -4.49608,5.2772291 -2.04172,3.168929 -4.25372,5.765499 -4.91559,5.770157 -1.8556,0.01456 -1.50253,-0.928435 3.04496,-8.119736 l 4.22675,-6.6840345 -3.70483,-5.83135026 -3.70479,-5.83135164 -8.956574,-0.284542 -8.956581,-0.2845407 -7.602754,-12.0208969 c -4.181523,-6.611478 -7.927757,-12.221749 -8.325023,-12.467247 -0.606889,-0.375108 -23.062492,33.4425377 -23.062492,34.7315967 0,0.238696 3.35748,0.4389307 7.461101,0.4446417 l 7.461101,0.01086 3.920198,6.3362146 3.920195,6.336184 3.208297,-5.293677 c 1.764594,-2.91153 3.151862,-5.6591745 3.082873,-6.1058882 -0.06913,-0.4467157 -1.873352,-3.5539298 -4.009706,-6.9048969 -3.458708,-5.425206 -4.343807,-8.8718679 -1.888673,-7.3545198 1.025733,0.6339587 9.577188,13.686548 9.577188,14.6182584 0,1.3254824 -9.193967,14.6892245 -10.108573,14.6931915 -0.529532,0.0023 -2.831336,-3.024657 -5.115128,-6.72661 l -4.152377,-6.7308271 -7.881655,0.0182 -7.881654,0.0182 -3.128866,4.7851381 c -1.720857,2.631829 -3.128829,5.00677 -3.128829,5.277666 0,0.270715 3.357481,0.496275 7.461101,0.500786 l 7.461101,0.0073 4.332235,6.944165 c 2.382763,3.819299 4.482221,7.298019 4.665464,7.730471 0.464872,1.096941 -8.780035,15.130407 -9.96041,15.119599 -1.356339,-0.0109 -10.241275,-14.376406 -9.567254,-15.467015 0.875311,-1.416231 2.124965,-0.178293 6.046544,5.989527 l 3.657632,5.752761 3.438878,-5.539718 3.438913,-5.539719 -3.696202,-5.81855 -3.696238,-5.81855 -7.99427,-0.256524 -7.994308,-0.256524 -4.332272,6.744656 c -3.743577,5.828191 -6.73905,8.504846 -6.73905,6.02184 0,-1.275124 61.078697,-95.834606 62.095659,-96.133874 1.007285,-0.296425 129.736429,199.48777 130.278879,202.18938 0.2849,1.41911 -10.7743,1.55025 -130.744077,1.55025 H -44.917363 Z"
         id="path953" />
    </g>
  </g>
</svg>
