<?xml version="1.0" encoding="UTF-8" standalone="no"?>
<svg
   xmlns:dc="http://purl.org/dc/elements/1.1/"
   xmlns:cc="http://creativecommons.org/ns#"
   xmlns:rdf="http://www.w3.org/1999/02/22-rdf-syntax-ns#"
   xmlns:svg="http://www.w3.org/2000/svg"
   xmlns="http://www.w3.org/2000/svg"
   xmlns:sodipodi="http://sodipodi.sourceforge.net/DTD/sodipodi-0.dtd"
   xmlns:inkscape="http://www.inkscape.org/namespaces/inkscape"
   width="1024"
   height="1024"
   viewBox="0 0 270.93333 270.93334"
   version="1.1"
   id="svg8"
   inkscape:version="1.0.1 (3bc2e813f5, 2020-09-07)"
   sodipodi:docname="mapa_001.svg">
  <defs
     id="defs2" />
  <sodipodi:namedview
     id="base"
     pagecolor="#ffffff"
     bordercolor="#666666"
     borderopacity="1.0"
     inkscape:pageopacity="0.0"
     inkscape:pageshadow="2"
     inkscape:zoom="0.7"
     inkscape:cx="376.60834"
     inkscape:cy="554.20901"
     inkscape:document-units="px"
     inkscape:current-layer="layer1"
     inkscape:document-rotation="0"
     showgrid="false"
     units="px"
     inkscape:showpageshadow="false"
     inkscape:snap-page="false"
     inkscape:window-width="1920"
     inkscape:window-height="1056"
     inkscape:window-x="0"
     inkscape:window-y="0"
     inkscape:window-maximized="1" />
  <metadata
     id="metadata5">
    <rdf:RDF>
      <cc:Work
         rdf:about="">
        <dc:format>image/svg+xml</dc:format>
        <dc:type
           rdf:resource="http://purl.org/dc/dcmitype/StillImage" />
        <dc:title></dc:title>
      </cc:Work>
    </rdf:RDF>
  </metadata>
  <g
     inkscape:label="Layer 1"
     inkscape:groupmode="layer"
     id="layer1">
    <rect
       style="fill:#000000;stroke:#000000;stroke-width:0;stroke-linejoin:miter;stroke-miterlimit:0;stroke-dasharray:none;paint-order:stroke fill markers"
       id="rect883"
       width="270.93332"
       height="270.93329"
       x="0"
       y="0" />
    <g
       id="g847"
       transform="matrix(3.6245189,0,0,4.149466,-66.873538,-46.584457)"
       style="fill:#ffffff;stroke:#ffffff">
      <path
         style="fill:#ffffff;stroke:#ffffff;stroke-width:0.264583"
         d="m 19.52126,70.281074 c 0.386053,-0.66275 15.810826,-24.694076 16.316357,-25.420384 0.337746,-0.485251 0.611124,-0.657487 0.778274,-0.490336 0.167151,0.16715 -0.07662,0.780214 -0.69399,1.745313 -0.523404,0.818214 -0.951644,1.544881 -0.951644,1.614816 0,0.06993 0.831944,0.127153 1.848764,0.127153 h 1.848764 l 0.633781,-1.003974 c 3.177577,-5.033606 4.194208,-6.451342 4.445755,-6.199795 0.188794,0.188794 -0.466879,1.424282 -2.110404,3.976638 l -2.384291,3.702751 1.166107,1.738257 c 0.641359,0.956043 1.166107,1.810444 1.166107,1.898674 0,0.140912 -2.273865,3.773273 -2.549012,4.071893 -0.0581,0.06306 -0.218452,0.0019 -0.356332,-0.136038 -0.157866,-0.157867 0.181207,-0.935088 0.915727,-2.099027 1.301438,-2.062292 1.338278,-1.610162 -0.339244,-4.163441 l -0.651875,-0.992188 h -2.160282 -2.160283 l -6.734245,10.47732 c -3.703835,5.762527 -6.773933,10.584559 -6.82244,10.715625 -0.04986,0.134732 1.65059,0.238305 3.912463,0.238305 h 4.000657 L 27.555787,68.486101 26.4716,66.889565 27.073168,65.906413 c 1.48275,-2.423281 4.466601,-6.936277 4.586049,-6.936277 0.0725,0 0.686021,0.833438 1.363375,1.852084 l 1.231552,1.852083 h 4.715618 4.715619 l 1.33098,1.972426 c 0.732038,1.084834 1.330979,2.096866 1.330979,2.248959 0,0.688797 -0.621518,0.131304 -1.756501,-1.575552 l -1.231553,-1.852083 -4.789827,-0.01159 -4.789827,-0.01159 -1.058334,-1.674066 -1.058333,-1.674064 -2.153968,3.374316 -2.153968,3.374316 1.063708,1.618623 1.063707,1.618623 h 6.715359 6.715359 l -0.962327,-1.449369 -0.962328,-1.449369 -4.72938,-0.07198 c -6.482525,-0.09867 -6.415353,-0.578575 0.09422,-0.673113 l 4.954961,-0.07196 1.23542,1.857899 1.23542,1.857899 h 2.20201 2.202008 l 0.976165,-1.521354 c 0.536892,-0.836745 0.977111,-1.647494 0.97827,-1.801664 0.0011,-0.15417 -0.506262,-1.028915 -1.127599,-1.943873 -0.756361,-1.113793 -1.041889,-1.751378 -0.863983,-1.929283 0.177906,-0.177906 0.711554,0.394972 1.614773,1.733486 0.741979,1.099563 1.349052,2.069835 1.349052,2.156158 0,0.08632 -0.416719,0.808385 -0.926042,1.604585 -0.509322,0.7962 -0.926041,1.504857 -0.926041,1.574792 0,0.06993 3.930279,0.127153 8.733951,0.127153 h 8.733954 L 65.759461,68.62742 64.793258,67.172211 h -2.476082 c -1.361845,0 -2.476066,-0.0893 -2.476047,-0.198437 2.1e-5,-0.109141 0.602144,-1.138174 1.33805,-2.286741 0.925963,-1.445191 1.422721,-2.0036 1.61307,-1.81325 0.190346,0.190346 -0.01802,0.733189 -0.676593,1.762709 -0.523406,0.818227 -0.951645,1.544895 -0.951645,1.614829 0,0.06994 0.829778,0.127154 1.843953,0.127154 h 1.843952 l 0.976165,-1.521355 c 0.536892,-0.836744 0.977111,-1.642125 0.97827,-1.789739 0.0011,-0.147611 -0.451316,-0.951283 -1.005493,-1.785938 l -1.0076,-1.517552 h -6.712117 -6.712119 l 0.959885,1.445692 0.959887,1.445691 2.394852,0.07566 c 1.624261,0.05132 2.430116,0.182081 2.504448,0.406392 0.08201,0.247483 -0.464513,0.330729 -2.171269,0.330729 h -2.280864 l 1.068191,1.572982 c 0.587505,0.86514 1.068192,1.698578 1.068192,1.852084 0,0.827534 -0.793877,-0.09206 -2.95683,-3.425066 l -2.403816,-3.704167 -7.175406,-0.0108 -7.175406,-0.0108 -1.190625,-1.907432 c -0.654844,-1.049086 -1.176678,-2.040723 -1.159631,-2.203637 0.01705,-0.162912 0.590488,-1.161095 1.274315,-2.218185 0.862037,-1.332571 1.327842,-1.837457 1.51893,-1.64637 0.191088,0.191087 -0.08995,0.840708 -0.916443,2.118328 l -1.192049,1.84272 1.071788,1.630921 1.071787,1.630918 2.242678,-0.07586 2.242678,-0.07585 2.197759,-3.426019 c 1.208767,-1.884309 2.125089,-3.551184 2.036272,-3.704166 -0.08882,-0.152982 -0.622795,-0.964756 -1.186616,-1.80394 -0.588662,-0.876157 -0.944228,-1.664716 -0.835116,-1.852083 0.104507,-0.179462 1.141733,-1.814574 2.304946,-3.633584 1.163213,-1.819011 2.115374,-3.433432 2.115914,-3.587603 5.29e-4,-0.15417 -0.503661,-1.02343 -1.120447,-1.931686 l -1.121427,-1.651377 1.224366,-1.964414 c 1.308637,-2.099623 1.592744,-2.403922 1.852305,-1.983947 0.09065,0.146679 -0.366765,1.088438 -1.016481,2.092797 l -1.181304,1.826108 1.167056,1.73967 c 0.641879,0.956819 1.167053,1.810788 1.167053,1.897711 0,0.08692 -1.059714,1.803751 -2.354919,3.815175 l -2.354918,3.657137 0.982046,1.478811 0.982046,1.478815 4.372795,-6.807036 4.372798,-6.807036 -2.076892,-0.132292 c -3.010768,-0.191777 -2.730264,-0.64937 0.442669,-0.722134 l 2.645834,-0.06068 2.333841,3.689016 2.333845,3.689015 2.407253,0.07583 c 1.634078,0.05147 2.442456,0.182052 2.516852,0.406556 0.08195,0.247304 -0.459796,0.33073 -2.147681,0.33073 h -2.25728 l 4.382442,6.81302 c 2.410344,3.747162 4.411689,6.846094 4.44744,6.886515 0.115715,0.130841 1.860277,-2.904983 1.798015,-3.128841 -0.03315,-0.119187 -1.080484,-1.784824 -2.327409,-3.701415 l -2.267138,-3.484711 1.109636,-1.758431 c 0.610301,-0.967134 1.111932,-1.879201 1.114737,-2.026815 0.0028,-0.147611 -0.448321,-0.951282 -1.002498,-1.785937 l -1.0076,-1.517552 -2.409936,-0.01418 -2.409936,-0.01418 -1.27331,-2.006571 c -0.829636,-1.307403 -1.183159,-2.096721 -1.014587,-2.265293 0.168571,-0.168573 0.694912,0.397252 1.510564,1.623878 l 1.251845,1.8826 h 2.334368 2.334369 l 1.330981,1.972426 c 0.732038,1.084834 1.330978,2.046251 1.330978,2.136482 0,0.09023 -0.522449,0.971679 -1.160997,1.958774 l -1.160997,1.794719 2.351622,3.619552 c 1.293392,1.990755 2.351622,3.683442 2.351622,3.761531 0,0.07809 -0.523565,0.951331 -1.163481,1.940539 l -1.163482,1.798556 1.065409,1.62121 1.065408,1.621211 h 2.206609 2.206609 l 0.883074,-1.389063 c 0.485687,-0.763984 0.959262,-1.516271 1.052385,-1.671748 0.09312,-0.155477 -0.270835,-0.942835 -0.808797,-1.749684 l -0.978109,-1.466999 -1.054343,1.683539 c -0.57989,0.925946 -1.13841,1.683538 -1.241158,1.683538 -0.528558,0 -0.342654,-0.59641 0.703358,-2.25647 0.634381,-1.006787 1.079627,-1.952746 0.989436,-2.10213 -0.09019,-0.149384 -1.160201,-1.805607 -2.377798,-3.680492 -1.386789,-2.135415 -2.120595,-3.502099 -1.96429,-3.658404 0.156308,-0.156308 0.446783,0.02991 0.777557,0.498467 0.951519,1.347875 6.945363,10.702925 6.945363,10.840154 0,0.07366 -0.524354,0.944493 -1.165233,1.935189 l -1.16523,1.801265 0.985631,1.484211 0.985631,1.484212 1.119833,-1.756518 c 0.775462,-1.216356 1.204474,-1.671878 1.395074,-1.481278 0.304155,0.304155 -2.078371,4.307245 -2.552581,4.288814 -0.145521,-0.0057 -0.780322,-0.838859 -1.410671,-1.851567 l -1.146087,-1.841286 h -2.184808 -2.18481 l -1.162137,1.852083 c -0.639175,1.018646 -1.246606,1.852084 -1.349844,1.852084 -0.529894,0 -0.343593,-0.596294 0.707189,-2.263495 1.136219,-1.802757 1.149686,-1.850657 0.711325,-2.529991 C 71.022369,61.99789 67.3754,56.328277 63.163744,49.779593 l -7.657553,-11.906696 -6.696093,10.41674 c -3.68285,5.729208 -6.696091,10.476085 -6.696091,10.54862 0,0.07253 5.175591,0.131879 11.501313,0.131879 h 11.501311 l 1.330981,1.972427 c 0.732038,1.084834 1.330978,2.04625 1.330978,2.136481 0,0.09023 -0.523565,0.973407 -1.163481,1.962616 l -1.163482,1.798555 1.065409,1.621211 1.065408,1.62121 h 4.341265 4.341265 l -1.095465,-1.613143 c -0.743516,-1.094875 -1.008894,-1.699715 -0.826008,-1.8826 0.182885,-0.182886 0.671645,0.335383 1.521298,1.613143 l 1.251845,1.8826 h 4.336666 4.336664 l -1.095465,-1.613143 c -0.743516,-1.094875 -1.008894,-1.699715 -0.826008,-1.8826 0.182885,-0.182886 0.671645,0.335383 1.521298,1.613143 l 1.251845,1.8826 h 1.928331 1.928333 L 80.035675,53.810761 69.573042,37.538886 l -2.41858,-0.01418 -2.41858,-0.01418 -1.27331,-2.006573 c -0.829636,-1.307402 -1.183159,-2.09672 -1.014587,-2.265293 0.168571,-0.168572 0.694912,0.397253 1.510564,1.623879 l 1.251845,1.8826 h 1.929979 1.929979 l -6.761096,-10.51719 c -3.718603,-5.784454 -6.777453,-10.5319 -6.797445,-10.549881 -0.01998,-0.01798 -0.471554,0.654943 -1.003475,1.495387 l -0.967128,1.52808 1.165566,1.737451 c 0.641061,0.955598 1.165566,1.806441 1.165566,1.890761 0,0.08432 -0.416719,0.804745 -0.926042,1.600945 -0.509322,0.796199 -0.926041,1.504855 -0.926041,1.57479 0,0.06994 0.889341,0.127154 1.976313,0.127154 h 1.97631 l 1.330982,1.972426 c 0.732038,1.084835 1.330978,2.046252 1.330978,2.136483 0,0.143446 -2.269694,3.772389 -2.549012,4.075535 -0.0581,0.06306 -0.218453,0.0019 -0.356332,-0.136038 -0.157867,-0.157866 0.181207,-0.935087 0.915728,-2.099028 1.301438,-2.062293 1.338278,-1.61016 -0.339246,-4.16344 l -0.651873,-0.992188 h -2.478384 c -1.363109,0 -2.478381,-0.07613 -2.478381,-0.169175 0,-0.151839 1.092486,-2.001519 2.014612,-3.410928 0.312245,-0.477243 0.241382,-0.701945 -0.633069,-2.007482 l -0.984668,-1.470088 -2.155703,3.368124 -2.155706,3.368125 1.027866,1.549774 1.027867,1.549775 2.429682,0.132292 c 1.609199,0.08762 2.466583,0.243976 2.53895,0.463021 0.08176,0.247456 -0.465021,0.330729 -2.1716,0.330729 h -2.280864 l 1.068191,1.572982 c 0.587505,0.86514 1.068192,1.698578 1.068192,1.852084 0,0.821705 -0.78319,-0.07397 -2.844244,-3.252747 l -2.28998,-3.531847 -4.605704,7.169868 c -2.533139,3.943428 -4.654142,7.221462 -4.713341,7.28452 -0.0592,0.06306 -0.223416,-0.0011 -0.364926,-0.142639 -0.276874,-0.276873 16.322936,-26.365505 16.80257,-26.407294 0.301585,-0.02628 35.837347,55.098626 35.845637,55.605594 0.0043,0.26299 -7.36789,0.330729 -35.993544,0.330729 -28.725516,0 -35.960024,-0.06682 -35.806298,-0.330729 z"
         id="path861" />
    </g>
  </g>
</svg>
